<svg width="40" height="40" viewBox="0 0 40 40" fill="none" xmlns="http://www.w3.org/2000/svg">
<path d="M34.5833 35.3149H5.41667C4.64312 35.3149 3.90125 35.0077 3.35427 34.4607C2.80729 33.9137 2.5 33.1718 2.5 32.3983V11.9816C2.5 11.2081 2.80729 10.4662 3.35427 9.91921C3.90125 9.37223 4.64312 9.06494 5.41667 9.06494H11.25L14.1667 4.68994H25.8333L28.75 9.06494H34.5833C35.3569 9.06494 36.0987 9.37223 36.6457 9.91921C37.1927 10.4662 37.5 11.2081 37.5 11.9816V32.3983C37.5 33.1718 37.1927 33.9137 36.6457 34.4607C36.0987 35.0077 35.3569 35.3149 34.5833 35.3149Z" stroke="#12B438" stroke-width="2" stroke-linecap="round" stroke-linejoin="round"/>
<path d="M20 16.3564V28.0231" stroke="#12B438" stroke-width="2" stroke-linecap="round" stroke-linejoin="round"/>
<path d="M14.167 22.1899H25.8337" stroke="#12B438" stroke-width="2" stroke-linecap="round" stroke-linejoin="round"/>
</svg>
