<svg width="101" height="100" viewBox="0 0 101 100" fill="none" xmlns="http://www.w3.org/2000/svg">
<path d="M95.5 25.3409L64.7874 11L50.5 17.1105L36.2126 11L5.5 25.3409L20.6069 33.215L8.43943 45.3824L21.9964 53.5238V70.9822L50.5 88.0665L79.0036 70.9822V53.5238L92.5606 45.3824L80.3931 33.215L95.5 25.3409ZM13.5523 25.519L36.2839 14.9192L45.7257 18.9454L23.4751 30.7031L13.5523 25.519ZM14.1758 44.6698L23.9026 34.943L47.6675 47.342L37.6734 58.7613L14.1758 44.6698ZM48.7185 82.8468L25.5594 68.9513V55.6615L38.386 63.3575L48.7185 51.5463V82.8468ZM48.7185 43.8682L27.323 32.6983L48.7185 21.4038V43.8682ZM64.7162 14.9192L87.4477 25.519L77.5249 30.7031L55.2743 18.9454L64.7162 14.9192ZM52.2815 21.4038L73.677 32.6983L52.2815 43.8682V21.4038ZM75.4406 68.9513L52.2815 82.8468V51.5463L62.614 63.3575L75.4406 55.6615V68.9513ZM86.8242 44.6698L63.3266 58.7613L53.3325 47.342L77.0974 34.943L86.8242 44.6698Z" fill="#728A9D"/>
</svg>
