<svg width="21" height="20" viewBox="0 0 21 20" fill="none" xmlns="http://www.w3.org/2000/svg">
<g clip-path="url(#clip0_104_18)">
<path d="M8.2983 18.9999C9.34474 18.9999 10.193 18.1516 10.193 17.1052C10.193 16.0588 9.34474 15.2104 8.2983 15.2104C7.25187 15.2104 6.40356 16.0588 6.40356 17.1052C6.40356 18.1516 7.25187 18.9999 8.2983 18.9999Z" fill="#23262C"/>
<path d="M16.4187 18.9999C17.4651 18.9999 18.3134 18.1516 18.3134 17.1052C18.3134 16.0588 17.4651 15.2104 16.4187 15.2104C15.3722 15.2104 14.5239 16.0588 14.5239 17.1052C14.5239 18.1516 15.3722 18.9999 16.4187 18.9999Z" fill="#23262C"/>
<path d="M4.56722 4.38346H17.2297C18.5752 4.38346 19.5369 5.68543 19.1413 6.97151L17.525 12.2255C17.4398 12.5021 17.2681 12.7442 17.0352 12.9161C16.8023 13.0879 16.5203 13.1806 16.2308 13.1805H8.10124C7.80711 13.1806 7.52093 13.0849 7.28605 12.9078C7.05116 12.7308 6.88034 12.482 6.79946 12.1992L3.73996 1.4906C3.69954 1.34927 3.61419 1.22495 3.49684 1.13644C3.37948 1.04792 3.23649 1.00003 3.08949 1H1.66675" stroke="#23262C" stroke-width="1.5" stroke-linecap="round" stroke-linejoin="round"/>
</g>
<defs>
<clipPath id="clip0_104_18">
<rect width="20" height="20" fill="white" transform="translate(0.666748)"/>
</clipPath>
</defs>
</svg>
