<svg width="20" height="20" viewBox="0 0 20 20" fill="none" xmlns="http://www.w3.org/2000/svg">
<path d="M7.64066 12.9831C7.48233 12.9831 7.324 12.9248 7.199 12.7998C7.08276 12.6822 7.01758 12.5235 7.01758 12.3581C7.01758 12.1928 7.08276 12.0341 7.199 11.9165L11.9157 7.1998C12.1573 6.95814 12.5573 6.95814 12.799 7.1998C13.0407 7.44147 13.0407 7.84147 12.799 8.08314L8.08233 12.7998C7.96566 12.9248 7.799 12.9831 7.64066 12.9831Z" fill="#23262C"/>
<path d="M12.3572 12.9831C12.1988 12.9831 12.0405 12.9248 11.9155 12.7998L7.19883 8.08314C6.95716 7.84147 6.95716 7.44147 7.19883 7.1998C7.44049 6.95814 7.84049 6.95814 8.08216 7.1998L12.7988 11.9165C13.0405 12.1581 13.0405 12.5581 12.7988 12.7998C12.6738 12.9248 12.5155 12.9831 12.3572 12.9831Z" fill="#23262C"/>
<path d="M12.4993 18.9582H7.49935C2.97435 18.9582 1.04102 17.0248 1.04102 12.4998V7.49984C1.04102 2.97484 2.97435 1.0415 7.49935 1.0415H12.4993C17.0243 1.0415 18.9577 2.97484 18.9577 7.49984V12.4998C18.9577 17.0248 17.0243 18.9582 12.4993 18.9582ZM7.49935 2.2915C3.65768 2.2915 2.29102 3.65817 2.29102 7.49984V12.4998C2.29102 16.3415 3.65768 17.7082 7.49935 17.7082H12.4993C16.341 17.7082 17.7077 16.3415 17.7077 12.4998V7.49984C17.7077 3.65817 16.341 2.2915 12.4993 2.2915H7.49935Z" fill="#23262C"/>
</svg>
