<svg width="17" height="18" viewBox="0 0 17 18" fill="none" xmlns="http://www.w3.org/2000/svg">
<path d="M11.991 0.666504H5.00768C1.97435 0.666504 0.166016 2.47484 0.166016 5.50817V12.4832C0.166016 15.5248 1.97435 17.3332 5.00768 17.3332H11.9827C15.016 17.3332 16.8243 15.5248 16.8243 12.4915V5.50817C16.8327 2.47484 15.0243 0.666504 11.991 0.666504ZM11.2993 10.9165C11.541 11.1582 11.541 11.5582 11.2993 11.7998C11.1743 11.9248 11.016 11.9832 10.8577 11.9832C10.6993 11.9832 10.541 11.9248 10.416 11.7998L8.49935 9.88317L6.58268 11.7998C6.45768 11.9248 6.29935 11.9832 6.14102 11.9832C5.98268 11.9832 5.82435 11.9248 5.69935 11.7998C5.58312 11.6822 5.51793 11.5235 5.51793 11.3582C5.51793 11.1928 5.58312 11.0341 5.69935 10.9165L7.61601 8.99984L5.69935 7.08317C5.45768 6.8415 5.45768 6.4415 5.69935 6.19984C5.94102 5.95817 6.34102 5.95817 6.58268 6.19984L8.49935 8.1165L10.416 6.19984C10.6577 5.95817 11.0577 5.95817 11.2993 6.19984C11.541 6.4415 11.541 6.8415 11.2993 7.08317L9.38268 8.99984L11.2993 10.9165Z" fill="white"/>
</svg>
