<svg width="15" height="15" viewBox="0 0 15 15" fill="none" xmlns="http://www.w3.org/2000/svg">
<g clip-path="url(#clip0_94_18649)">
<path d="M7.5006 11.7312C7.08995 11.7319 6.68317 11.6517 6.30354 11.4951C5.9239 11.3385 5.57885 11.1087 5.2881 10.8187L0.181854 5.71242C0.0641643 5.59473 -0.00195312 5.43511 -0.00195312 5.26867C-0.00195313 5.10223 0.0641643 4.94261 0.181854 4.82492C0.299544 4.70723 0.459166 4.64111 0.625604 4.64111C0.792043 4.64111 0.951664 4.70723 1.06935 4.82492L6.1756 9.93117C6.52717 10.2823 7.00373 10.4795 7.5006 10.4795C7.99748 10.4795 8.47404 10.2823 8.8256 9.93117L13.9319 4.82492C14.0495 4.70723 14.2092 4.64111 14.3756 4.64111C14.542 4.64111 14.7017 4.70723 14.8194 4.82492C14.937 4.94261 15.0032 5.10223 15.0032 5.26867C15.0032 5.43511 14.937 5.59473 14.8194 5.71242L9.7131 10.8187C9.42236 11.1087 9.07731 11.3385 8.69767 11.4951C8.31803 11.6517 7.91126 11.7319 7.5006 11.7312Z" fill="#23262C"/>
</g>
<defs>
<clipPath id="clip0_94_18649">
<rect width="15" height="15" fill="white"/>
</clipPath>
</defs>
</svg>
