<svg width="20" height="20" viewBox="0 0 20 20" fill="none" xmlns="http://www.w3.org/2000/svg">
<path d="M16.3356 3.66498C15.9092 3.23916 15.3312 3 14.7285 3C14.1259 3 13.5478 3.23916 13.1214 3.66498L2.919 13.8673C2.62684 14.1579 2.39518 14.5034 2.23744 14.8841C2.0797 15.2647 1.999 15.6728 2.00001 16.0848V17.3727C2.00001 17.5391 2.0661 17.6986 2.18374 17.8163C2.30138 17.9339 2.46094 18 2.62731 18H3.91515C4.32714 18.0012 4.73526 17.9206 5.1159 17.7629C5.49653 17.6053 5.84212 17.3737 6.13265 17.0816L16.3356 6.87862C16.7613 6.45218 17.0003 5.8743 17.0003 5.2718C17.0003 4.6693 16.7613 4.09142 16.3356 3.66498ZM5.24565 16.1946C4.89185 16.5461 4.41383 16.7439 3.91515 16.7454H3.25461V16.0848C3.25397 15.8376 3.30238 15.5927 3.39703 15.3644C3.49167 15.136 3.63068 14.9286 3.806 14.7543L11.5487 7.01161L12.9915 8.4544L5.24565 16.1946ZM15.448 5.99162L13.876 7.56426L12.4332 6.12461L14.0059 4.55197C14.1006 4.45745 14.213 4.3825 14.3367 4.33142C14.4604 4.28034 14.593 4.25413 14.7268 4.25427C14.8606 4.25442 14.9931 4.28092 15.1167 4.33227C15.2403 4.38362 15.3526 4.45881 15.4471 4.55354C15.5416 4.64828 15.6166 4.7607 15.6676 4.8844C15.7187 5.0081 15.7449 5.14065 15.7448 5.27448C15.7446 5.40831 15.7181 5.5408 15.6668 5.66438C15.6154 5.78797 15.5402 5.90023 15.4455 5.99476L15.448 5.99162Z" fill="#728A9D"/>
</svg>
