<svg width="15" height="15" viewBox="0 0 15 15" fill="none" xmlns="http://www.w3.org/2000/svg">
<g clip-path="url(#clip0_127_2711)">
<path d="M10.3909 0.573242C9.7222 0.583643 9.06811 0.770304 8.49465 1.11438C7.9212 1.45845 7.44869 1.94775 7.12484 2.53286C6.801 1.94775 6.32849 1.45845 5.75504 1.11438C5.18158 0.770304 4.52749 0.583643 3.85882 0.573242C2.79287 0.619555 1.78858 1.08586 1.06535 1.87029C0.342115 2.65472 -0.0412633 3.6935 -0.00103149 4.75969C-0.00103149 8.78285 6.50489 13.4295 6.78161 13.6267L7.12484 13.8695L7.46807 13.6267C7.74479 13.4307 14.2507 8.78285 14.2507 4.75969C14.291 3.6935 13.9076 2.65472 13.1843 1.87029C12.4611 1.08586 11.4568 0.619555 10.3909 0.573242Z" fill="#12B438"/>
</g>
<defs>
<clipPath id="clip0_127_2711">
<rect width="15" height="15" fill="white"/>
</clipPath>
</defs>
</svg>
