<svg width="20" height="20" viewBox="0 0 20 20" fill="none" xmlns="http://www.w3.org/2000/svg">
<path d="M12.188 17.6786V13.2908C12.188 13.0969 12.111 12.9109 11.9738 12.7737C11.8367 12.6366 11.6507 12.5595 11.4567 12.5595H8.53156C8.33761 12.5595 8.1516 12.6366 8.01446 12.7737C7.87731 12.9109 7.80027 13.0969 7.80027 13.2908V17.6786C7.80027 17.8725 7.72322 18.0585 7.58608 18.1957C7.44893 18.3328 7.26293 18.4098 7.06898 18.4098H2.68124C2.48729 18.4098 2.30128 18.3328 2.16414 18.1957C2.027 18.0585 1.94995 17.8725 1.94995 17.6786V9.22668C1.94996 9.12477 1.97127 8.83767 2.01251 8.74448C2.05376 8.65129 2.11402 8.47322 2.18945 8.40468L8.55713 2.06179C8.69178 1.93923 9.26688 1.58984 9.99459 1.58984C10.7223 1.58984 11.2541 1.93923 11.3888 2.06179L17.7997 8.40468C17.8752 8.47322 17.9354 8.65129 17.9767 8.74448C18.0179 8.83767 18.0392 9.12477 18.0392 9.22668V17.6786C18.0392 17.8725 17.9622 18.0585 17.825 18.1957C17.6879 18.3328 17.5019 18.4098 17.3079 18.4098H12.9193C12.7253 18.4098 12.5393 18.3328 12.4022 18.1957C12.265 18.0585 12.188 17.8725 12.188 17.6786Z" stroke="#23262C" stroke-width="1.5" stroke-linecap="round" stroke-linejoin="round"/>
</svg>
