<svg width="24" height="25" viewBox="0 0 24 25" fill="none" xmlns="http://www.w3.org/2000/svg">
<g clip-path="url(#clip0_194_6186)">
<path d="M19 0.5H5C3.67441 0.501588 2.40356 1.02888 1.46622 1.96622C0.528882 2.90356 0.00158786 4.17441 0 5.5L0 19.5C0.00158786 20.8256 0.528882 22.0964 1.46622 23.0338C2.40356 23.9711 3.67441 24.4984 5 24.5H19C20.3256 24.4984 21.5964 23.9711 22.5338 23.0338C23.4711 22.0964 23.9984 20.8256 24 19.5V5.5C23.9984 4.17441 23.4711 2.90356 22.5338 1.96622C21.5964 1.02888 20.3256 0.501588 19 0.5V0.5ZM22 5.5H15V2.5H19C19.7956 2.5 20.5587 2.81607 21.1213 3.37868C21.6839 3.94129 22 4.70435 22 5.5ZM11 2.5H13V7.5C13 7.76522 12.8946 8.01957 12.7071 8.20711C12.5196 8.39464 12.2652 8.5 12 8.5C11.7348 8.5 11.4804 8.39464 11.2929 8.20711C11.1054 8.01957 11 7.76522 11 7.5V2.5ZM5 2.5H9V5.5H2C2 4.70435 2.31607 3.94129 2.87868 3.37868C3.44129 2.81607 4.20435 2.5 5 2.5ZM19 22.5H5C4.20435 22.5 3.44129 22.1839 2.87868 21.6213C2.31607 21.0587 2 20.2956 2 19.5V7.5H9C9 8.29565 9.31607 9.05871 9.87868 9.62132C10.4413 10.1839 11.2044 10.5 12 10.5C12.7956 10.5 13.5587 10.1839 14.1213 9.62132C14.6839 9.05871 15 8.29565 15 7.5H22V19.5C22 20.2956 21.6839 21.0587 21.1213 21.6213C20.5587 22.1839 19.7956 22.5 19 22.5ZM20 19.5C20 19.7652 19.8946 20.0196 19.7071 20.2071C19.5196 20.3946 19.2652 20.5 19 20.5H16C15.7348 20.5 15.4804 20.3946 15.2929 20.2071C15.1054 20.0196 15 19.7652 15 19.5C15 19.2348 15.1054 18.9804 15.2929 18.7929C15.4804 18.6054 15.7348 18.5 16 18.5H19C19.2652 18.5 19.5196 18.6054 19.7071 18.7929C19.8946 18.9804 20 19.2348 20 19.5Z" fill="#12B438"/>
</g>
<defs>
<clipPath id="clip0_194_6186">
<rect width="24" height="24" fill="white" transform="translate(0 0.5)"/>
</clipPath>
</defs>
</svg>
