<svg width="15" height="16" viewBox="0 0 15 16" fill="none" xmlns="http://www.w3.org/2000/svg">
<g clip-path="url(#clip0_104_726)">
<path d="M4.00003 7.99767C3.9993 7.58702 4.07951 7.18024 4.23608 6.80061C4.39266 6.42097 4.62252 6.07592 4.91253 5.78517L10.0188 0.678924C10.1365 0.561235 10.2961 0.495117 10.4625 0.495117C10.629 0.495117 10.7886 0.561235 10.9063 0.678924C11.024 0.796614 11.0901 0.956236 11.0901 1.12267C11.0901 1.28911 11.024 1.44873 10.9063 1.56642L5.80003 6.67267C5.4489 7.02424 5.25168 7.5008 5.25168 7.99767C5.25168 8.49455 5.4489 8.97111 5.80003 9.32267L10.9063 14.4289C11.024 14.5466 11.0901 14.7062 11.0901 14.8727C11.0901 15.0391 11.024 15.1987 10.9063 15.3164C10.7886 15.4341 10.629 15.5002 10.4625 15.5002C10.2961 15.5002 10.1365 15.4341 10.0188 15.3164L4.91253 10.2102C4.62252 9.91943 4.39266 9.57438 4.23608 9.19474C4.07951 8.8151 3.9993 8.40833 4.00003 7.99767Z" fill="#23262C"/>
</g>
<defs>
<clipPath id="clip0_104_726">
<rect width="15" height="15" fill="white" transform="translate(0 0.5)"/>
</clipPath>
</defs>
</svg>
