<svg width="20" height="20" viewBox="0 0 20 20" fill="none" xmlns="http://www.w3.org/2000/svg">
<path d="M10.0069 10.6778C11.5151 10.6778 12.7377 9.45524 12.7377 7.94708C12.7377 6.43892 11.5151 5.21631 10.0069 5.21631C8.49873 5.21631 7.27612 6.43892 7.27612 7.94708C7.27612 9.45524 8.49873 10.6778 10.0069 10.6778Z" stroke="#12B438" stroke-linecap="round" stroke-linejoin="round"/>
<path d="M16.8338 7.94704C16.8338 14.0913 10.0069 18.8701 10.0069 18.8701C10.0069 18.8701 3.17993 14.0913 3.17993 7.94704C3.17993 6.13643 3.89919 4.39997 5.17949 3.11968C6.45979 1.83938 8.19624 1.12012 10.0069 1.12012C11.8175 1.12012 13.5539 1.83938 14.8342 3.11968C16.1145 4.39997 16.8338 6.13643 16.8338 7.94704Z" stroke="#12B438" stroke-linecap="round" stroke-linejoin="round"/>
</svg>
