<svg width="15" height="16" viewBox="0 0 15 16" fill="none" xmlns="http://www.w3.org/2000/svg">
<g clip-path="url(#clip0_104_177)">
<path d="M14.3747 7.37512C14.2089 7.37512 14.05 7.30928 13.9328 7.19206C13.8155 7.07485 13.7497 6.91588 13.7497 6.75012C13.7484 5.42445 13.2212 4.15345 12.2838 3.21605C11.3464 2.27866 10.0754 1.75145 8.7497 1.75012C8.58394 1.75012 8.42496 1.68428 8.30775 1.56707C8.19055 1.44985 8.1247 1.29088 8.1247 1.12512C8.1247 0.959363 8.19055 0.800392 8.30775 0.683182C8.42496 0.565971 8.58394 0.500123 8.7497 0.500123C10.4067 0.501943 11.9954 1.16101 13.1671 2.33272C14.3388 3.50442 14.9979 5.09308 14.9997 6.75012C14.9997 6.91588 14.9338 7.07485 14.8166 7.19206C14.6994 7.30928 14.5405 7.37512 14.3747 7.37512ZM12.4997 6.75012C12.4997 5.75556 12.1046 4.80173 11.4013 4.09847C10.6981 3.39521 9.74426 3.00012 8.7497 3.00012C8.58394 3.00012 8.42496 3.06597 8.30775 3.18318C8.19055 3.30039 8.1247 3.45936 8.1247 3.62512C8.1247 3.79088 8.19055 3.94985 8.30775 4.06706C8.42496 4.18427 8.58394 4.25012 8.7497 4.25012C9.41274 4.25012 10.0486 4.51351 10.5175 4.98236C10.9863 5.4512 11.2497 6.08708 11.2497 6.75012C11.2497 6.91588 11.3155 7.07485 11.4328 7.19206C11.55 7.30928 11.7089 7.37512 11.8747 7.37512C12.0405 7.37512 12.1994 7.30928 12.3166 7.19206C12.4338 7.07485 12.4997 6.91588 12.4997 6.75012ZM13.8641 14.3526L14.4328 13.697C14.7948 13.3338 14.9981 12.842 14.9981 12.3292C14.9981 11.8164 14.7948 11.3245 14.4328 10.9614C14.4134 10.942 12.9097 9.78512 12.9097 9.78512C12.5488 9.44158 12.0694 9.25029 11.5711 9.25098C11.0729 9.25168 10.594 9.44432 10.2341 9.78887L9.04282 10.7926C8.07043 10.3902 7.18712 9.79961 6.44362 9.05482C5.70012 8.31003 5.11108 7.42571 4.71032 6.45262L5.71032 5.26512C6.05514 4.90523 6.24801 4.4263 6.24882 3.92787C6.24964 3.42945 6.05834 2.94989 5.7147 2.58887C5.7147 2.58887 4.55657 1.087 4.5372 1.06762C4.1806 0.708716 3.69712 0.504512 3.19121 0.499132C2.6853 0.493753 2.19759 0.68763 1.83345 1.03887L1.1147 1.66387C-3.13155 6.59012 6.0122 15.6632 11.1009 15.5001C11.6148 15.5031 12.1241 15.4031 12.5986 15.206C13.0732 15.0089 13.5035 14.7187 13.8641 14.3526Z" fill="white"/>
</g>
<defs>
<clipPath id="clip0_104_177">
<rect width="15" height="15" fill="white" transform="translate(0 0.5)"/>
</clipPath>
</defs>
</svg>
