<svg width="10" height="10" viewBox="0 0 10 10" fill="none" xmlns="http://www.w3.org/2000/svg">
<path d="M5.42283 8.75845C5.31087 8.87041 5.15767 8.94112 4.98089 8.94112C4.81554 8.94015 4.65723 8.87403 4.5403 8.7571C4.42338 8.64017 4.35726 8.48187 4.35628 8.31651L4.35628 1.64614C4.35628 1.30437 4.63912 1.02153 4.98089 1.02153C5.32266 1.02153 5.6055 1.30437 5.6055 1.64614V8.31651C5.61139 8.4874 5.53479 8.6465 5.42283 8.75845Z" fill="white"/>
<path d="M8.7579 5.42339C8.64594 5.53535 8.49274 5.60606 8.31596 5.60606L1.64559 5.60606C1.30382 5.60606 1.02097 5.32321 1.02097 4.98145C1.02097 4.63968 1.30382 4.35683 1.64559 4.35683L8.31596 4.35683C8.65773 4.35683 8.94057 4.63968 8.94057 4.98144C8.94057 5.15822 8.86986 5.31143 8.7579 5.42339Z" fill="white"/>
</svg>
