<svg width="48" height="48" viewBox="0 0 48 48" fill="none" xmlns="http://www.w3.org/2000/svg">
<path d="M39.4235 12.1057C41.3727 12.1057 42.9529 10.5255 42.9529 8.5763C42.9529 6.62705 41.3727 5.04688 39.4235 5.04688C37.4742 5.04688 35.894 6.62705 35.894 8.5763C35.894 10.5255 37.4742 12.1057 39.4235 12.1057Z" stroke="#728A9D" stroke-width="2" stroke-linecap="round" stroke-linejoin="round"/>
<path d="M39.4238 5.04697V2.3999" stroke="#728A9D" stroke-width="2" stroke-linecap="round" stroke-linejoin="round"/>
<path d="M36.3661 6.81181L34.0742 5.48828" stroke="#728A9D" stroke-width="2" stroke-linecap="round" stroke-linejoin="round"/>
<path d="M36.3661 10.3413L34.0742 11.6648" stroke="#728A9D" stroke-width="2" stroke-linecap="round" stroke-linejoin="round"/>
<path d="M39.4238 12.106V14.753" stroke="#728A9D" stroke-width="2" stroke-linecap="round" stroke-linejoin="round"/>
<path d="M42.481 10.3413L44.7729 11.6648" stroke="#728A9D" stroke-width="2" stroke-linecap="round" stroke-linejoin="round"/>
<path d="M42.481 6.81181L44.7729 5.48828" stroke="#728A9D" stroke-width="2" stroke-linecap="round" stroke-linejoin="round"/>
<path d="M23.5413 31.5177C28.4144 31.5177 32.3649 27.5673 32.3649 22.6942C32.3649 17.821 28.4144 13.8706 23.5413 13.8706C18.6682 13.8706 14.7178 17.821 14.7178 22.6942C14.7178 27.5673 18.6682 31.5177 23.5413 31.5177Z" stroke="#728A9D" stroke-width="2" stroke-linecap="round" stroke-linejoin="round"/>
<path d="M9.37988 40.2023C10.7076 37.5871 12.7336 35.3905 15.2333 33.8562C17.733 32.3219 20.6087 31.5098 23.5417 31.5098C26.4747 31.5098 29.3504 32.3219 31.8501 33.8562C34.3498 35.3905 36.3758 37.5871 37.7035 40.2023" stroke="#728A9D" stroke-width="2" stroke-linecap="round" stroke-linejoin="round"/>
<path d="M44.4243 20.9294C45.1687 25.353 44.4881 29.8987 42.4806 33.9102C40.4731 37.9217 37.2427 41.1914 33.2557 43.2472C29.2687 45.303 24.7316 46.0385 20.2993 45.3475C15.8671 44.6564 11.7691 42.5747 8.59722 39.4027C5.4253 36.2308 3.34352 32.1329 2.65249 27.7006C1.96147 23.2684 2.69694 18.7312 4.75272 14.7443C6.80851 10.7573 10.0782 7.52682 14.0897 5.51933C18.1012 3.51184 22.647 2.8312 27.0705 3.5757" stroke="#728A9D" stroke-width="2" stroke-linecap="round" stroke-linejoin="round"/>
</svg>
