<svg width="24" height="24" viewBox="0 0 24 24" fill="none" xmlns="http://www.w3.org/2000/svg">
<path d="M17.125 12C17.7463 12 18.25 11.4963 18.25 10.875C18.25 10.2537 17.7463 9.75 17.125 9.75C16.5037 9.75 16 10.2537 16 10.875C16 11.4963 16.5037 12 17.125 12Z" fill="#12B438"/>
<path d="M10.75 6.75H14.5" stroke="#12B438" stroke-width="1.7" stroke-linecap="round" stroke-linejoin="round"/>
<path d="M20.5 3.75H13.75" stroke="#12B438" stroke-width="1.7" stroke-linecap="round" stroke-linejoin="round"/>
<path d="M1 13.5C1 12.9033 1.23705 12.331 1.65901 11.909C2.08097 11.4871 2.65326 11.25 3.25 11.25" stroke="#12B438" stroke-width="1.7" stroke-linecap="round" stroke-linejoin="round"/>
<path d="M20.9069 9H21.25C21.6478 9 22.0294 9.15804 22.3107 9.43934C22.592 9.72065 22.75 10.1022 22.75 10.5V13.5C22.75 13.8978 22.592 14.2794 22.3107 14.5607C22.0294 14.842 21.6478 15 21.25 15H20.5L18.8031 19.7522C18.7511 19.898 18.6552 20.0241 18.5286 20.1132C18.4021 20.2023 18.251 20.2501 18.0963 20.25H16.9038C16.749 20.2501 16.5979 20.2023 16.4714 20.1132C16.3448 20.0241 16.2489 19.898 16.1969 19.7522L15.8397 18.75H9.41032L9.05313 19.7522C9.00108 19.898 8.9052 20.0241 8.77864 20.1132C8.65208 20.2023 8.50105 20.2501 8.34625 20.25H7.15375C6.99896 20.2501 6.84793 20.2023 6.72137 20.1132C6.59481 20.0241 6.49893 19.898 6.44688 19.7522L5.21875 16.3125C3.95064 14.9317 3.24791 13.1247 3.25 11.25C3.25 9.26088 4.04018 7.35322 5.4467 5.9467C6.85323 4.54018 8.76088 3.75 10.75 3.75H13.75C15.2135 3.74958 16.6452 4.17736 17.8686 4.98062C19.092 5.78388 20.0536 6.92753 20.635 8.27063C20.7379 8.50902 20.8286 8.75245 20.9069 9Z" stroke="#12B438" stroke-width="1.7" stroke-linecap="round" stroke-linejoin="round"/>
</svg>
