<svg width="24" height="24" viewBox="0 0 24 24" fill="none" xmlns="http://www.w3.org/2000/svg">
<g clip-path="url(#clip0_223_5579)">
<path d="M15 0H9C7.67441 0.00158786 6.40356 0.528882 5.46622 1.46622C4.52888 2.40356 4.00159 3.67441 4 5V19C4.00159 20.3256 4.52888 21.5964 5.46622 22.5338C6.40356 23.4711 7.67441 23.9984 9 24H15C16.3256 23.9984 17.5964 23.4711 18.5338 22.5338C19.4711 21.5964 19.9984 20.3256 20 19V5C19.9984 3.67441 19.4711 2.40356 18.5338 1.46622C17.5964 0.528882 16.3256 0.00158786 15 0V0ZM9 2H15C15.7956 2 16.5587 2.31607 17.1213 2.87868C17.6839 3.44129 18 4.20435 18 5V16H6V5C6 4.20435 6.31607 3.44129 6.87868 2.87868C7.44129 2.31607 8.20435 2 9 2ZM15 22H9C8.20435 22 7.44129 21.6839 6.87868 21.1213C6.31607 20.5587 6 19.7956 6 19V18H18V19C18 19.7956 17.6839 20.5587 17.1213 21.1213C16.5587 21.6839 15.7956 22 15 22Z" fill="#12B438"/>
<path d="M12 20.9995C12.5523 20.9995 13 20.5518 13 19.9995C13 19.4472 12.5523 18.9995 12 18.9995C11.4477 18.9995 11 19.4472 11 19.9995C11 20.5518 11.4477 20.9995 12 20.9995Z" fill="#12B438"/>
</g>
<defs>
<clipPath id="clip0_223_5579">
<rect width="24" height="24" fill="white"/>
</clipPath>
</defs>
</svg>
