<svg width="8" height="15" viewBox="0 0 8 15" fill="none" xmlns="http://www.w3.org/2000/svg">
<path d="M7.09006 7.49744C7.09079 7.9081 7.01058 8.31487 6.854 8.69451C6.69743 9.07414 6.46757 9.4192 6.17756 9.70994L1.07131 14.8162C0.953618 14.9339 0.793996 15 0.627557 15C0.461119 15 0.301497 14.9339 0.183807 14.8162C0.0661175 14.6985 0 14.5389 0 14.3724C0 14.206 0.0661175 14.0464 0.183807 13.9287L5.29006 8.82244C5.64118 8.47088 5.83841 7.99432 5.83841 7.49744C5.83841 7.00057 5.64118 6.52401 5.29006 6.17244L0.183807 1.06619C0.0661175 0.948503 0 0.788881 0 0.622443C0 0.456004 0.0661175 0.296383 0.183807 0.178694C0.301497 0.0610037 0.461119 -0.0051136 0.627557 -0.0051136C0.793996 -0.00511456 0.953618 0.0610037 1.07131 0.178694L6.17756 5.28494C6.46757 5.57569 6.69743 5.92074 6.854 6.30038C7.01058 6.68001 7.09079 7.08679 7.09006 7.49744Z" fill="#728A9D"/>
</svg>
