<svg width="100" height="16" viewBox="0 0 100 16" fill="none" xmlns="http://www.w3.org/2000/svg">
<path d="M44.7126 4.57622L46.7972 3.08496H39.8184V12.0179H46.7972V10.5267H41.8123V8.2459H46.0721V6.75464H41.8123V4.57622H44.7126Z" fill="#21A038"/>
<path d="M34.5459 6.56457H32.129V4.57622H35.996L38.0806 3.08496H30.135V12.0179H34.2891C36.6154 12.0179 37.9598 10.9945 37.9598 9.21083C37.9598 7.50027 36.7513 6.56457 34.5459 6.56457ZM34.2136 10.5267H32.129V8.05583H34.2136C35.4824 8.05583 36.0716 8.4652 36.0716 9.29855C36.0716 10.1319 35.4371 10.5267 34.2136 10.5267Z" fill="#21A038"/>
<path d="M52.4458 3.08496H48.6543V12.0179H50.6483V9.48862H52.4609C54.8779 9.48862 56.3884 8.26052 56.3884 6.28679C56.3884 4.31306 54.8779 3.08496 52.4458 3.08496ZM52.4005 7.99735H50.6331V4.57622H52.4005C53.6845 4.57622 54.3794 5.19027 54.3794 6.28679C54.3794 7.38331 53.6845 7.99735 52.4005 7.99735Z" fill="#21A038"/>
<path d="M26.7219 10.0878C26.1932 10.3656 25.6041 10.5118 24.9998 10.5118C23.2022 10.5118 21.9032 9.26909 21.9032 7.55852C21.9032 5.84796 23.2022 4.60524 24.9998 4.60524C25.6494 4.59062 26.2838 4.7953 26.8125 5.16081L28.2476 4.13739L28.1569 4.04967C27.3261 3.33328 26.2083 2.96777 24.9394 2.96777C23.5648 2.96777 22.311 3.421 21.4047 4.23973C20.4983 5.0877 19.9847 6.27194 20.0149 7.50004C19.9998 8.74276 20.4983 9.94162 21.4047 10.8188C22.3563 11.6814 23.6252 12.1639 24.9243 12.1346C26.3593 12.1346 27.6131 11.6522 28.459 10.775L27.1751 9.85389L26.7219 10.0878Z" fill="#21A038"/>
<path d="M80.3622 3.09958V12.0325H82.3562V8.37748H86.6009V12.0325H88.5948V3.09958H86.6009V6.76926H82.3562V3.09958H80.3622ZM76.9332 12.0325H79.0329L75.1356 3.09958H73.1115L69.1387 12.0325H71.1477L71.9483 10.2342H76.1779L76.9332 12.0325ZM72.5525 8.74299L74.0933 5.16103L75.5435 8.74299H72.5525ZM93.0661 8.42134H94.3048L97.3562 12.0179H99.9241L95.8456 7.39793L99.4106 3.08496H97.1296L94.1689 6.91546H93.0661V3.08496H91.0722V12.0179H93.0661V8.42134ZM62.5526 6.57919V4.59084H67.764V3.09958H60.5586V12.0325H64.7127C67.039 12.0325 68.3834 11.0091 68.3834 9.22545C68.3834 7.51489 67.1749 6.57919 64.9695 6.57919H62.5526ZM62.5526 10.5413V8.07046H64.6371C65.906 8.07046 66.4952 8.47982 66.4952 9.31317C66.4952 10.1465 65.8758 10.5559 64.6371 10.5559H62.5526V10.5413Z" fill="#21A038"/>
<path d="M13.775 3.02637C14.1376 3.47959 14.4397 3.97668 14.6965 4.50301L7.71762 9.4885L4.78711 7.70484V5.57029L7.70252 7.33933L13.775 3.02637Z" fill="#21A038"/>
<path d="M1.81229 7.55884C1.81229 7.45649 1.81229 7.36877 1.8274 7.26643L0.0600276 7.17871C0.0600276 7.29567 0.0449219 7.42725 0.0449219 7.54422C0.0449219 9.59105 0.905949 11.4478 2.29568 12.7929L3.54945 11.5794C2.47695 10.556 1.81229 9.13782 1.81229 7.55884Z" fill="url(#paint0_linear_170_1241)"/>
<path d="M7.70296 1.85705C7.8087 1.85705 7.89933 1.85705 8.00507 1.87167L8.09571 0.161105C7.97486 0.161105 7.83891 0.146484 7.71806 0.146484C5.60326 0.146484 3.68483 0.979836 2.2951 2.3249L3.54888 3.53837C4.60628 2.50034 6.08664 1.85705 7.70296 1.85705Z" fill="url(#paint1_linear_170_1241)"/>
<path d="M7.7033 13.2604C7.59756 13.2604 7.50692 13.2604 7.40118 13.2458L7.31055 14.9564C7.43139 14.9564 7.56734 14.971 7.68819 14.971C9.80299 14.971 11.7214 14.1376 13.1111 12.7926L11.8574 11.5791C10.8 12.6318 9.33472 13.2604 7.7033 13.2604Z" fill="url(#paint2_linear_170_1241)"/>
<path d="M11.0263 2.8512L12.5217 1.78392C11.2075 0.760505 9.5308 0.131836 7.703 0.131836V1.8424C8.94167 1.85702 10.0897 2.22253 11.0263 2.8512Z" fill="url(#paint3_linear_170_1241)"/>
<path d="M15.3 7.84899C15.3 7.39577 15.2547 6.95716 15.1792 6.51855L13.5326 7.70279C13.5326 7.74665 13.5326 7.80513 13.5326 7.84899C13.5326 9.53032 12.7773 11.0362 11.584 12.0742L12.7773 13.3462C14.3181 12.0011 15.3 10.0274 15.3 7.84899Z" fill="#21A038"/>
<path d="M7.70295 13.261C5.96579 13.261 4.4099 12.53 3.33739 11.375L2.02319 12.53C3.42803 14.0359 5.4522 14.9716 7.70295 14.9716V13.261Z" fill="url(#paint4_linear_170_1241)"/>
<path d="M3.76093 3.33348L2.56758 2.06152C1.01169 3.4212 0.0449219 5.38031 0.0449219 7.55872H1.81229C1.81229 5.89202 2.56758 4.37152 3.76093 3.33348Z" fill="url(#paint5_linear_170_1241)"/>
<defs>
<linearGradient id="paint0_linear_170_1241" x1="2.11286" y1="12.5848" x2="0.406716" y2="7.50555" gradientUnits="userSpaceOnUse">
<stop offset="0.1444" stop-color="#F2E913"/>
<stop offset="0.3037" stop-color="#E7E518"/>
<stop offset="0.5823" stop-color="#CADB26"/>
<stop offset="0.891" stop-color="#A3CD39"/>
</linearGradient>
<linearGradient id="paint1_linear_170_1241" x1="2.7989" y1="2.12657" x2="7.34553" y2="0.342126" gradientUnits="userSpaceOnUse">
<stop offset="0.0592" stop-color="#0FA8E0"/>
<stop offset="0.5385" stop-color="#0099F9"/>
<stop offset="0.9234" stop-color="#0291EB"/>
</linearGradient>
<linearGradient id="paint2_linear_170_1241" x1="7.20677" y1="13.5118" x2="12.6527" y2="12.2442" gradientUnits="userSpaceOnUse">
<stop offset="0.1226" stop-color="#A3CD39"/>
<stop offset="0.2846" stop-color="#86C339"/>
<stop offset="0.8693" stop-color="#21A038"/>
</linearGradient>
<linearGradient id="paint3_linear_170_1241" x1="7.33988" y1="1.22629" x2="11.8578" y2="2.66194" gradientUnits="userSpaceOnUse">
<stop offset="0.0566" stop-color="#0291EB"/>
<stop offset="0.79" stop-color="#0C8ACB"/>
</linearGradient>
<linearGradient id="paint4_linear_170_1241" x1="2.47257" y1="12.8078" x2="7.31297" y2="14.6704" gradientUnits="userSpaceOnUse">
<stop offset="0.1324" stop-color="#F2E913"/>
<stop offset="0.2977" stop-color="#EBE716"/>
<stop offset="0.5306" stop-color="#D9E01F"/>
<stop offset="0.8023" stop-color="#BBD62D"/>
<stop offset="0.9829" stop-color="#A3CD39"/>
</linearGradient>
<linearGradient id="paint5_linear_170_1241" x1="1.38973" y1="7.76534" x2="3.23713" y2="2.81587" gradientUnits="userSpaceOnUse">
<stop offset="0.0698" stop-color="#A3CD39"/>
<stop offset="0.2599" stop-color="#81C55F"/>
<stop offset="0.9216" stop-color="#0FA8E0"/>
</linearGradient>
</defs>
</svg>
