<svg width="18" height="18" viewBox="0 0 18 18" fill="none" xmlns="http://www.w3.org/2000/svg">
<g clip-path="url(#clip0_104_902)">
<path d="M16.8913 15.8838L12.6382 11.6307C13.7973 10.2132 14.3671 8.40445 14.2299 6.57857C14.0927 4.75268 13.259 3.04938 11.9012 1.82097C10.5434 0.592559 8.76534 -0.0669726 6.93489 -0.0212054C5.10443 0.0245617 3.36159 0.772126 2.06686 2.06686C0.772126 3.36159 0.0245617 5.10443 -0.0212054 6.93489C-0.0669726 8.76534 0.592559 10.5434 1.82097 11.9012C3.04938 13.259 4.75268 14.0927 6.57857 14.2299C8.40445 14.3671 10.2132 13.7973 11.6307 12.6382L15.8838 16.8913C16.0182 17.0211 16.1982 17.093 16.385 17.0913C16.5718 17.0897 16.7505 17.0148 16.8827 16.8827C17.0148 16.7505 17.0897 16.5718 17.0913 16.385C17.093 16.1982 17.0211 16.0182 16.8913 15.8838ZM7.12468 12.8249C5.99727 12.8249 4.89519 12.4906 3.95779 11.8643C3.02039 11.2379 2.28977 10.3477 1.85834 9.30607C1.4269 8.26448 1.31401 7.11835 1.53396 6.01261C1.7539 4.90688 2.2968 3.89119 3.09399 3.09399C3.89119 2.2968 4.90688 1.7539 6.01261 1.53396C7.11835 1.31401 8.26448 1.4269 9.30607 1.85834C10.3477 2.28977 11.2379 3.02039 11.8643 3.95779C12.4906 4.89519 12.8249 5.99727 12.8249 7.12468C12.8232 8.63596 12.2221 10.0848 11.1535 11.1535C10.0848 12.2221 8.63596 12.8232 7.12468 12.8249Z" fill="#85A0AA"/>
</g>
<defs>
<clipPath id="clip0_104_902">
<rect width="18" height="18" fill="white"/>
</clipPath>
</defs>
</svg>
