<svg width="25" height="25" viewBox="0 0 25 25" fill="none" xmlns="http://www.w3.org/2000/svg">
<path d="M3.125 11.6665C3.125 13.3894 4.52708 14.7915 6.25 14.7915C7.07708 14.7915 7.825 14.4634 8.38438 13.9373L14.625 17.504C14.6063 17.6394 14.5833 17.7748 14.5833 17.9165C14.5833 19.6394 15.9854 21.0415 17.7083 21.0415C19.4313 21.0415 20.8333 19.6394 20.8333 17.9165C20.8333 16.1936 19.4313 14.7915 17.7083 14.7915C16.8813 14.7915 16.1333 15.1196 15.574 15.6457L9.33333 12.08C9.35208 11.9436 9.375 11.8082 9.375 11.6665C9.375 11.5248 9.35208 11.3894 9.33333 11.253L15.574 7.68734C16.1333 8.21338 16.8813 8.5415 17.7083 8.5415C19.4313 8.5415 20.8333 7.13942 20.8333 5.4165C20.8333 3.69359 19.4313 2.2915 17.7083 2.2915C15.9854 2.2915 14.5833 3.69359 14.5833 5.4165C14.5833 5.55817 14.6063 5.69359 14.625 5.83005L8.38438 9.39567C7.80834 8.84846 7.04452 8.54278 6.25 8.5415C4.52708 8.5415 3.125 9.94359 3.125 11.6665Z" fill="#23262C"/>
</svg>
