<svg width="16" height="17" viewBox="0 0 16 17" fill="none" xmlns="http://www.w3.org/2000/svg">
<path d="M14.2814 11.1465C14.1876 11.0528 14.0605 11.0001 13.9279 11.0001C13.7953 11.0001 13.6681 11.0528 13.5744 11.1465L11.4959 13.225V2.5C11.4959 2.36739 11.4432 2.24021 11.3494 2.14645C11.2557 2.05268 11.1285 2 10.9959 2C10.8633 2 10.7361 2.05268 10.6423 2.14645C10.5486 2.24021 10.4959 2.36739 10.4959 2.5V13.225L8.41738 11.1465C8.37126 11.0987 8.31609 11.0607 8.25509 11.0344C8.19408 11.0082 8.12847 10.9945 8.06208 10.9939C7.99569 10.9933 7.92985 11.0059 7.86841 11.0311C7.80696 11.0562 7.75113 11.0934 7.70419 11.1403C7.65724 11.1872 7.62011 11.2431 7.59497 11.3045C7.56983 11.366 7.55718 11.4318 7.55776 11.4982C7.55834 11.5646 7.57213 11.6302 7.59833 11.6912C7.62454 11.7522 7.66263 11.8074 7.71038 11.8535L10.6424 14.7855C10.7361 14.8792 10.8633 14.9319 10.9959 14.9319C11.1285 14.9319 11.2556 14.8792 11.3494 14.7855L14.2814 11.8535C14.3751 11.7597 14.4278 11.6326 14.4278 11.5C14.4278 11.3674 14.3751 11.2403 14.2814 11.1465Z" fill="#23262C"/>
<path d="M7.57418 5.85326C7.66848 5.94434 7.79478 5.99474 7.92588 5.9936C8.05698 5.99246 8.18239 5.93988 8.27509 5.84717C8.36779 5.75447 8.42038 5.62906 8.42152 5.49796C8.42266 5.36687 8.37226 5.24057 8.28118 5.14626L5.34918 2.21426C5.25542 2.12053 5.12826 2.06787 4.99568 2.06787C4.8631 2.06787 4.73594 2.12053 4.64218 2.21426L1.71018 5.14626C1.6191 5.24057 1.5687 5.36687 1.56984 5.49796C1.57098 5.62906 1.62357 5.75447 1.71627 5.84717C1.80897 5.93988 1.93438 5.99246 2.06548 5.9936C2.19658 5.99474 2.32288 5.94434 2.41718 5.85326L4.49568 3.77476V14.4998C4.49568 14.6324 4.54836 14.7596 4.64213 14.8533C4.73589 14.9471 4.86307 14.9998 4.99568 14.9998C5.12829 14.9998 5.25547 14.9471 5.34923 14.8533C5.443 14.7596 5.49568 14.6324 5.49568 14.4998V3.77476L7.57418 5.85326Z" fill="#23262C"/>
</svg>
