<svg width="285" height="80" viewBox="0 0 285 80" fill="none" xmlns="http://www.w3.org/2000/svg">
<g clip-path="url(#clip0_94_18189)">
<path d="M75.1532 40.3125C70.9204 40.3125 68.2346 37.6267 68.2346 32.4353C68.2346 27.244 70.9204 24.5582 75.1532 24.5582C79.3765 24.5582 82.0718 27.244 82.0718 32.4353C82.0718 37.6267 79.3765 40.3125 75.1532 40.3125ZM75.1532 18.209C64.9604 18.209 59.3894 23.7894 59.3894 32.4353C59.3894 41.0812 64.9604 46.6522 75.1532 46.6522C85.3366 46.6522 90.9075 41.0812 90.9075 32.4353C90.9075 23.7894 85.3366 18.209 75.1532 18.209Z" fill="#23262C"/>
<path d="M107.444 37.8173L112.246 44.5461C112.626 45.1155 113.357 45.8842 114.552 45.8842H121.281C122.24 45.8842 122.657 45.1155 122.24 44.5461L113.015 32.047L121.471 20.3262C121.889 19.7473 121.471 18.9785 120.512 18.9785H113.973C112.825 18.9785 112.056 19.7473 111.667 20.3262L107.444 26.6659H107.055L102.832 20.3262C102.442 19.7473 101.674 18.9785 100.525 18.9785H93.9864C93.0278 18.9785 92.6008 19.7473 93.0278 20.3262L101.484 32.047L92.2591 44.5461C91.832 45.1155 92.2591 45.8842 93.2176 45.8842H99.9465C101.133 45.8842 101.864 45.1155 102.253 44.5461L107.055 37.8173H107.444Z" fill="#23262C"/>
<path d="M139.341 40.3125C135.118 40.3125 132.422 37.6267 132.422 32.4353C132.422 27.244 135.118 24.5582 139.341 24.5582C143.574 24.5582 146.26 27.244 146.26 32.4353C146.26 37.6267 143.574 40.3125 139.341 40.3125ZM139.341 18.209C129.158 18.209 123.587 23.7894 123.587 32.4353C123.587 41.0812 129.158 46.6522 139.341 46.6522C149.524 46.6522 155.105 41.0812 155.105 32.4353C155.105 23.7894 149.524 18.209 139.341 18.209Z" fill="#23262C"/>
<path d="M183.916 20.3262C183.916 19.5574 183.337 18.9785 182.569 18.9785H157.969C157.2 18.9785 156.631 19.5574 156.631 20.3262V24.1698C156.631 24.9386 157.2 25.5175 157.969 25.5175H166.045V44.5461C166.045 45.3148 166.624 45.8842 167.393 45.8842H173.154C173.923 45.8842 174.502 45.3148 174.502 44.5461V25.5175H182.569C183.337 25.5175 183.916 24.9386 183.916 24.1698V20.3262Z" fill="#23262C"/>
<path d="M207.382 30.5091V44.5456C207.382 45.3143 207.951 45.8838 208.72 45.8838H214.49C215.259 45.8838 215.838 45.3143 215.838 44.5456V20.3257C215.838 19.557 215.259 18.978 214.49 18.978H207.951C206.993 18.978 206.224 19.7468 205.844 20.3257L196.23 34.3527H195.851V20.3257C195.851 19.557 195.272 18.978 194.503 18.978H188.733C187.964 18.978 187.395 19.557 187.395 20.3257V44.5456C187.395 45.3143 187.964 45.8838 188.733 45.8838H195.272C196.23 45.8838 196.999 45.115 197.388 44.5456L206.993 30.5091H207.382Z" fill="#23262C"/>
<path d="M241.187 31.6669C241.187 31.6669 243.721 30.8982 245.799 27.0545L249.443 20.3257C249.757 19.7468 249.443 18.978 248.485 18.978H242.525C240.987 18.978 240.456 19.557 240.029 20.3257L236.375 27.0545C235.758 28.2028 235.037 28.9716 232.92 28.9716H230.035V20.3257C230.035 19.557 229.456 18.978 228.688 18.978H222.927C222.158 18.978 221.579 19.557 221.579 20.3257V44.5456C221.579 45.3143 222.158 45.8838 222.927 45.8838H228.688C229.456 45.8838 230.035 45.3143 230.035 44.5456V35.5106H233.499C235.606 35.5106 236.337 36.2793 236.954 37.4277L240.797 44.5456C241.225 45.3143 241.756 45.8838 243.293 45.8838H249.254C250.212 45.8838 250.525 45.115 250.212 44.5456L246.368 37.4277C243.872 32.8153 241.187 32.0465 241.187 32.0465V31.6669Z" fill="#23262C"/>
<path d="M274.666 44.5461C274.969 45.3148 275.624 45.8842 276.393 45.8842H282.932C283.701 45.8842 284.242 45.3148 283.891 44.5461L273.128 20.2882C272.787 19.5195 272.17 18.9785 271.401 18.9785H263.524C262.755 18.9785 262.138 19.5574 261.787 20.3262L251.025 44.5461C250.683 45.3148 251.224 45.8842 251.993 45.8842H258.143C258.911 45.8842 259.557 45.3148 259.87 44.5461L261.218 41.082H273.318L274.666 44.5461ZM267.168 27.055H267.557L270.632 34.7423H263.903L267.168 27.055Z" fill="#23262C"/>
<path d="M61.3691 61.7527V54.2407H63.9101C64.7663 54.2407 65.4655 54.4471 66.0075 54.8598C66.5558 55.2725 66.8299 55.8361 66.8299 56.5507C66.8299 57.2899 66.5619 57.8689 66.026 58.2878C65.4839 58.7005 64.7786 58.9068 63.9101 58.9068H62.2377V61.7527H61.3691ZM63.7345 54.9799H62.2377V58.1584H63.7345C65.2191 58.1584 65.9613 57.6225 65.9613 56.5507C65.9613 55.5035 65.2191 54.9799 63.7345 54.9799Z" fill="#23262C"/>
<path d="M80.07 61.7527H79.2014V54.2407H80.07V61.7527ZM72.6504 61.7527V54.2407H73.5189V57.1143H75.487C76.3248 57.1143 76.9962 57.3114 77.5013 57.7057C78.0126 58.0999 78.2682 58.6728 78.2682 59.4243C78.2682 60.1635 78.0126 60.7363 77.5013 61.1429C76.9962 61.5494 76.3248 61.7527 75.487 61.7527H72.6504ZM75.4408 57.8535H73.5189V61.0135H75.4593C76.7529 61.0135 77.3997 60.4838 77.3997 59.4243C77.3997 58.3771 76.7467 57.8535 75.4408 57.8535Z" fill="#23262C"/>
<path d="M86.1987 61.7547V54.2427H90.9757V54.9819H87.0673V57.1902H88.8321C89.7068 57.1902 90.3967 57.3873 90.9018 57.7815C91.4131 58.1696 91.6687 58.7332 91.6687 59.4724C91.6687 60.1993 91.4131 60.7598 90.9018 61.1541C90.3967 61.5545 89.7191 61.7547 88.869 61.7547H86.1987ZM88.675 57.9294H87.0673V61.0155H88.712C89.4265 61.0155 89.9501 60.8923 90.2827 60.6459C90.6215 60.4056 90.7909 60.0145 90.7909 59.4724C90.7909 58.9119 90.6154 58.5146 90.2643 58.2805C89.9131 58.0464 89.3834 57.9294 88.675 57.9294Z" fill="#23262C"/>
<path d="M96.7375 61.7527L99.9807 54.2407H100.997L104.231 61.7527H103.316L102.244 59.221H98.6779L97.6246 61.7527H96.7375ZM100.544 55.1277H100.387L98.9736 58.5003H101.94L100.544 55.1277Z" fill="#23262C"/>
<path d="M111.589 56.3659V54.2407H116.606V61.7527H115.738V54.9799H112.43V56.8371C112.43 58.5126 112.22 59.7969 111.801 60.6901C111.383 61.4601 110.807 61.8451 110.074 61.8451C109.759 61.8451 109.488 61.8051 109.26 61.725L109.418 60.9766C109.578 61.032 109.775 61.0597 110.009 61.0597C110.452 61.0597 110.797 60.801 111.044 60.2836C111.407 59.5197 111.589 58.2138 111.589 56.3659Z" fill="#23262C"/>
<path d="M122.729 61.7537V54.2417H123.589V57.0691H125.409L126.665 55.0548C127.047 54.4389 127.549 54.1309 128.172 54.1309C128.399 54.1309 128.627 54.1555 128.855 54.2048L128.698 54.9624C128.575 54.9378 128.446 54.9255 128.31 54.9255C127.91 54.9255 127.568 55.1472 127.284 55.5908L126.13 57.3925L128.957 61.7537H127.959L125.446 57.8083H123.589V61.7537H122.729Z" fill="#23262C"/>
<path d="M134.223 61.7547L137.466 54.2427H138.482L141.716 61.7547H140.801L139.73 59.2229H136.163L135.11 61.7547H134.223ZM138.029 55.1297H137.872L136.459 58.5022H139.425L138.029 55.1297Z" fill="#23262C"/>
<path d="M156.894 55.7015C156.284 56.2743 155.979 57.0382 155.979 57.993C155.979 58.9477 156.284 59.7146 156.894 60.2937C157.504 60.8727 158.249 61.1622 159.13 61.1622C160.005 61.1622 160.75 60.8727 161.366 60.2937C161.976 59.7146 162.281 58.9477 162.281 57.993C162.281 57.0382 161.976 56.2743 161.366 55.7015C160.75 55.1225 160.005 54.8329 159.13 54.8329C158.249 54.8329 157.504 55.1225 156.894 55.7015ZM163.149 57.993C163.149 59.1449 162.767 60.0842 162.004 60.8111C161.234 61.538 160.276 61.9014 159.13 61.9014C157.972 61.9014 157.014 61.538 156.256 60.8111C155.493 60.0904 155.111 59.151 155.111 57.993C155.111 56.8472 155.493 55.9109 156.256 55.184C157.026 54.4572 157.984 54.0938 159.13 54.0938C160.282 54.0938 161.24 54.4541 162.004 55.1748C162.767 55.9017 163.149 56.8411 163.149 57.993Z" fill="#23262C"/>
<path d="M170.989 57.7631L168.374 54.2427H169.428L171.636 57.3473L173.835 54.2427H174.852L172.264 57.7815L175.203 61.7547H174.131L171.599 58.2435L169.114 61.7547H168.106L170.989 57.7631Z" fill="#23262C"/>
<path d="M181.954 55.7015C181.338 56.2743 181.03 57.0382 181.03 57.993C181.03 58.9477 181.338 59.7146 181.954 60.2937C182.563 60.8727 183.306 61.1622 184.18 61.1622C185.061 61.1622 185.807 60.8727 186.416 60.2937C187.032 59.7146 187.34 58.9477 187.34 57.993C187.34 57.0382 187.032 56.2743 186.416 55.7015C185.807 55.1225 185.061 54.8329 184.18 54.8329C183.306 54.8329 182.563 55.1225 181.954 55.7015ZM188.2 57.993C188.2 59.1449 187.818 60.0842 187.054 60.8111C186.29 61.538 185.332 61.9014 184.18 61.9014C183.029 61.9014 182.071 61.538 181.307 60.8111C180.543 60.0904 180.161 59.151 180.161 57.993C180.161 56.8472 180.546 55.9109 181.316 55.184C182.08 54.4572 183.035 54.0938 184.18 54.0938C185.339 54.0938 186.299 54.4541 187.063 55.1748C187.821 55.9017 188.2 56.8411 188.2 57.993Z" fill="#23262C"/>
<path d="M195.37 54.9799H193.06V54.2407H198.548V54.9799H196.238V61.7527H195.37V54.9799Z" fill="#23262C"/>
<path d="M203.338 61.7527L206.581 54.2407H207.598L210.832 61.7527H209.917L208.845 59.221H205.279L204.225 61.7527H203.338ZM207.145 55.1277H206.988L205.574 58.5003H208.549L207.145 55.1277Z" fill="#23262C"/>
<path d="M226.023 55.7015C225.413 56.2743 225.108 57.0382 225.108 57.993C225.108 58.9477 225.413 59.7146 226.023 60.2937C226.639 60.8727 227.384 61.1622 228.259 61.1622C229.139 61.1622 229.885 60.8727 230.495 60.2937C231.104 59.7146 231.409 58.9477 231.409 57.993C231.409 57.0382 231.104 56.2743 230.495 55.7015C229.885 55.1225 229.139 54.8329 228.259 54.8329C227.384 54.8329 226.639 55.1225 226.023 55.7015ZM232.278 57.993C232.278 59.1449 231.896 60.0842 231.132 60.8111C230.362 61.538 229.404 61.9014 228.259 61.9014C227.107 61.9014 226.149 61.538 225.385 60.8111C224.621 60.0904 224.239 59.151 224.239 57.993C224.239 56.8472 224.624 55.9109 225.394 55.184C226.158 54.4572 227.113 54.0938 228.259 54.0938C229.417 54.0938 230.375 54.4541 231.132 55.1748C231.896 55.9017 232.278 56.8411 232.278 57.993Z" fill="#23262C"/>
<path d="M239.426 54.9799H237.116V54.2407H242.604V54.9799H240.294V61.7527H239.426V54.9799Z" fill="#23262C"/>
<path d="M249.032 56.6081V54.2427H254.077V60.997H254.909L254.816 63.4271H254.133L253.994 61.7547H248.071L247.886 63.4271H247.23V60.997C247.6 60.8861 247.911 60.6674 248.164 60.341C248.743 59.5956 249.032 58.3513 249.032 56.6081ZM253.227 60.997V54.9819H249.873V56.5988C249.873 58.7117 249.445 60.1777 248.589 60.997H253.227Z" fill="#23262C"/>
<path d="M268.034 61.7547H267.175V54.2427H268.034V61.7547ZM260.624 61.7547V54.2427H261.493V57.1163H263.451C264.289 57.1163 264.964 57.3134 265.475 57.7076C265.98 58.1018 266.233 58.6747 266.233 59.4262C266.233 60.1654 265.98 60.7383 265.475 61.1448C264.964 61.5514 264.289 61.7547 263.451 61.7547H260.624ZM263.405 57.8554H261.493V61.0155H263.433C264.727 61.0155 265.373 60.4857 265.373 59.4262C265.373 58.379 264.717 57.8554 263.405 57.8554Z" fill="#23262C"/>
<path d="M276.63 57.7611L274.025 54.2407H275.078L277.286 57.3453L279.486 54.2407H280.502L277.915 57.7796L280.853 61.7527H279.781L277.249 58.2416L274.764 61.7527H273.757L276.63 57.7611Z" fill="#23262C"/>
<path d="M49.5323 69.5103C49.5323 69.5103 48.0793 67.9025 47.4959 67.3033C47.3174 66.2343 47.0628 64.4368 47.0628 64.4368H49.3354C49.3354 64.4368 47.9677 63.7234 47.0628 63.3008C46.5364 62.6668 43.3857 58.5357 42.7557 57.655C42.1237 56.7736 41.3257 56.0241 39.7389 53.3564C37.9821 50.4065 36.8362 48.5283 36.8362 48.5283C36.8362 48.5283 34.4796 49.7575 29.1107 50.0095C25.9351 50.1585 23.3579 49.4215 23.3579 49.4215C23.3579 49.4215 21.082 53.0145 19.1139 56.1751C17.5126 58.747 15.6035 61.0997 14.8934 62.0598C14.2188 62.5211 12.9739 63.3008 12.9739 63.3008L14.9164 63.4452C14.9164 63.4452 14.9643 64.7459 14.8934 65.0668C14.8219 65.3857 14.1781 66.4357 14.1781 66.4357C14.1781 66.4357 12.9345 67.239 12.9752 67.3092C13.092 67.5094 14.9394 67.0979 14.9394 67.0979C14.9394 67.0979 17.8387 68.1899 19.5345 68.8954C21.2297 69.5989 24.4092 71.1963 24.4092 71.3971C24.4092 71.5953 23.6145 72.2784 23.7438 72.3828C23.8718 72.4884 25.708 71.6077 25.708 71.6077C25.708 71.6077 45.0854 70.1863 46.7189 70.1154C48.353 70.0445 50.472 69.9802 50.472 69.8011C50.472 69.6232 49.5323 69.5103 49.5323 69.5103ZM43.3162 68.7176C41.9223 68.9597 39.7034 69.07 37.6697 69.2104C35.6346 69.3528 30.9338 69.5983 30.9338 69.5983L36.8362 67.8454H42.5175L36.8362 66.7094V63.3001H42.5175L36.8362 62.1635C36.8362 62.1635 38.616 57.7245 39.0721 56.5268C39.7389 57.443 42.3685 59.6631 42.8594 60.6495C43.3503 61.6365 43.4205 62.8696 43.8418 63.7155C44.2618 64.5588 44.5079 65.1948 44.6832 65.7224C44.8584 66.2513 44.6832 66.4266 45.069 67.027C45.4549 67.6262 46.7182 68.1545 46.7182 68.1545C46.7182 68.1545 45.7371 68.2936 43.3162 68.7176Z" fill="#23262C"/>
<path d="M13.857 64.818C13.8642 64.7504 13.8681 64.6113 13.8694 64.4301L9.66805 64.1178L12.4073 62.4023C12.4191 62.3957 13.4783 61.7323 14.147 61.2827C14.1543 61.2735 14.1628 61.2624 14.1707 61.2519L11.1368 61.557L11.0455 61.5669V51.0037L13.2624 50.5423L19.2442 50.5889L15.8966 46.7058L17.1133 46.6756L16.1657 45.6092L17.1225 45.1551L17.3096 47.8891L19.552 47.2033V53.4686C21.0726 51.0437 22.4396 48.8826 22.4586 48.8557L22.8825 48.187L23.6445 48.4029C23.651 48.4062 23.9089 48.4764 24.348 48.5683V45.5836L27.3353 44.9608L32.8584 45.0048L32.9096 45.7529L34.6907 45.2089V48.1529C35.8017 47.8549 36.3372 47.5918 36.3464 47.5865L37.2206 47.1442L37.7351 47.9763C37.7416 47.9855 38.0192 48.441 38.4996 49.2377V43.9226L40.8727 43.4278L47.2752 43.479L43.692 39.3216L44.996 39.2894L41.8118 35.7102L46.3636 35.76L42.6203 32.6428L44.2032 32.61L40.7408 29.7408L41.9279 29.708L39.1592 26.8381L43.0514 27.0357L40.431 23.5726L41.9634 23.8699L39.7189 21.1654L40.8405 21.2645L38.3336 18.1315L39.1926 18.4281L36.4895 14.8331L35.8122 13.2791L35.236 14.9322L34.2109 16.4823L33.1563 18.7911L32.233 20.3412L31.3765 22.5508L30.0568 24.6948L31.1186 24.4415L29.2982 27.102L32.2999 26.871L30.1237 29.7073L31.179 29.4435L30.5024 30.4876L27.1706 27.7274L28.6655 27.6854L25.1788 24.0727L30.0791 24.322L26.7788 19.9618L28.7082 20.3359L25.8823 16.9306L27.2939 17.0552L24.1386 13.1098L25.2195 13.4832L21.8148 8.95697L20.963 7L20.2378 9.08166L18.9489 11.0334L17.6193 13.94L16.4571 15.8924L15.3795 18.6749L13.7178 21.3735L15.0553 21.0552L12.763 24.4047L16.5417 24.114L13.8005 27.6854L15.1301 27.354L12.9691 30.6897L12.1848 29.7441L13.2322 29.8373L10.8907 26.9103L11.6933 27.1873L9.16667 23.8285L8.53403 22.3762L7.99524 23.9211L7.03907 25.3694L6.05271 27.5266L5.19038 28.9749L4.39105 31.0395L3.15859 33.0424L4.15086 32.8062L2.44983 35.2915L5.25338 35.0762L3.21962 37.7262L4.20598 37.4794L2.11054 40.7148L3.03324 40.8178L1.24755 43.2106H4.1443L1.98716 45.8291L2.8193 45.9229L1.06314 47.9567L2.07969 48.0958L0 51.1914L4.1082 49.8342L3.55957 51.7006L5.6852 50.6887L5.82433 52.7165L7.48795 52.2092V61.9278L3.97892 62.2802L10.8933 65.0838L13.7461 65.0549C13.7953 64.9525 13.836 64.8705 13.857 64.818ZM34.1722 35.3052L34.2497 35.3059L34.1893 35.2554L35.9271 30.3675L33.1885 33.1717L35.1363 27.0035L33.5849 28.1907L35.5661 23.0128L33.9819 24.3312L34.774 20.8025L35.5661 18.3619L34.8396 18.8232L35.9605 15.5262L37.0808 16.9115L36.4534 16.7468L38.73 19.847L37.6222 19.7151L39.8509 22.3867L38.5652 22.222L41.6996 26.3446L37.6576 26.1464L39.8673 28.6698L38.3736 28.6862L41.8958 31.6873L40.5432 31.6538L43.9072 34.8537H39.4886L41.9115 37.7393L40.3785 37.6396L43.8409 41.6966L38.1347 41.5279L35.4309 46.2989L36.0741 42.8844L34.0607 43.4737L34.0508 43.4626L35.6797 38.3319L32.3957 40.2955L34.1722 35.3052ZM31.0399 42.7801L30.7577 42.7715L30.9972 42.6928L31.0484 42.7518L31.0399 42.7801ZM31.1127 35.5782L30.0089 36.9183L28.8171 35.5782H31.1127ZM29.9282 31.3736L29.7884 31.5908L29.537 31.3814L29.9282 31.3736ZM21.11 28.5162L17.6613 32.0469L20.1131 24.2807L18.1594 25.775L20.6526 19.2557L18.6569 20.916L19.6564 16.4731L20.6526 13.3999L19.7391 13.9813L21.1494 9.82849L22.561 11.5728L21.7715 11.3655L24.6367 15.2689L23.2415 15.1022L26.049 18.4669L24.4294 18.2595L28.3774 23.4492L23.2868 23.2011L26.07 26.3781L24.1879 26.3984L28.6229 30.1779L26.9199 30.1359L29.2778 32.3783L28.9359 32.9066L29.9229 33.0169L29.0665 34.1647H25.5916L28.6439 37.7977L26.7125 37.6737L28.5415 39.8157L27.8144 40.6577L28.9018 40.8067L27.6444 42.6797L23.8893 42.5681L20.4846 48.5742L21.2937 44.2763L18.7402 45.0238L20.7976 38.5452L16.6638 41.0167L21.11 28.5162ZM14.9969 44.0027L14.9326 44.2232L14.7954 44.0703L14.9969 44.0027ZM13.5032 36.9518L11.6952 35.0775H12.3299L14.9378 35.2101L13.5032 36.9518ZM13.3694 32.0941L13.1489 32.3895L12.8496 31.9931L13.3694 32.0941ZM6.88485 50.5883L8.41131 45.7818L5.34394 47.6154L8.64232 38.3405L6.08355 40.9596L7.90271 35.1983L6.45368 36.306L8.30303 31.4687L6.82316 32.7012L7.56408 29.4048L8.30303 27.1243L7.62511 27.5561L8.67119 24.4756L9.71924 25.7698L9.13386 25.6155L11.2601 28.5123L10.2246 28.3882L12.3075 30.8847L11.1053 30.7311L12.7617 32.9086L11.6021 34.4633L10.2587 34.397L12.3233 36.7543L10.9268 36.7694L12.5294 38.1344L12.1395 38.6075L13.2257 38.7283L13.248 38.7467L10.894 41.4728L12.2636 41.6592L9.46067 45.8317L13.5938 44.4667L14.2337 45.226L12.8004 45.1334L16.0351 48.9227L10.7043 48.7658L8.17768 53.2212L8.77882 50.0337L6.88485 50.5883Z" fill="#23262C"/>
</g>
<defs>
<clipPath id="clip0_94_18189">
<rect width="285" height="80" fill="white"/>
</clipPath>
</defs>
</svg>
