<svg width="15" height="16" viewBox="0 0 15 16" fill="none" xmlns="http://www.w3.org/2000/svg">
<g clip-path="url(#clip0_223_5963)">
<path d="M7.5006 5.49979C7.08995 5.49905 6.68317 5.57927 6.30354 5.73584C5.9239 5.89241 5.57885 6.12227 5.2881 6.41229L0.181854 11.5185C0.0641643 11.6362 -0.00195312 11.7958 -0.00195312 11.9623C-0.00195313 12.1287 0.0641643 12.2883 0.181854 12.406C0.299544 12.5237 0.459166 12.5898 0.625604 12.5898C0.792043 12.5898 0.951664 12.5237 1.06935 12.406L6.1756 7.29979C6.52717 6.94866 7.00373 6.75144 7.5006 6.75144C7.99748 6.75144 8.47404 6.94866 8.8256 7.29979L13.9319 12.406C14.0495 12.5237 14.2092 12.5898 14.3756 12.5898C14.542 12.5898 14.7017 12.5237 14.8194 12.406C14.937 12.2883 15.0032 12.1287 15.0032 11.9623C15.0032 11.7958 14.937 11.6362 14.8194 11.5185L9.7131 6.41229C9.42236 6.12227 9.07731 5.89241 8.69767 5.73584C8.31803 5.57927 7.91126 5.49905 7.5006 5.49979Z" fill="#728A9D"/>
</g>
<defs>
<clipPath id="clip0_223_5963">
<rect width="15" height="15" fill="white" transform="translate(0 0.5)"/>
</clipPath>
</defs>
</svg>
