<svg width="78" height="78" viewBox="0 0 78 78" fill="none" xmlns="http://www.w3.org/2000/svg">
<rect width="78" height="78" rx="39" fill="#23262C" fill-opacity="0.75"/>
<g clip-path="url(#clip0_223_4152)">
<path d="M49.9375 49.9375H28.0625C27.4823 49.9375 26.9259 49.707 26.5157 49.2968C26.1055 48.8866 25.875 48.3302 25.875 47.75V32.4375C25.875 31.8573 26.1055 31.3009 26.5157 30.8907C26.9259 30.4805 27.4823 30.25 28.0625 30.25H32.4375L34.625 26.9688H43.375L45.5625 30.25H49.9375C50.5177 30.25 51.0741 30.4805 51.4843 30.8907C51.8945 31.3009 52.125 31.8573 52.125 32.4375V47.75C52.125 48.3302 51.8945 48.8866 51.4843 49.2968C51.0741 49.707 50.5177 49.9375 49.9375 49.9375Z" stroke="white" stroke-width="2" stroke-linecap="round" stroke-linejoin="round"/>
<path d="M39 44.4688C41.7183 44.4688 43.9219 42.2652 43.9219 39.5469C43.9219 36.8286 41.7183 34.625 39 34.625C36.2817 34.625 34.0781 36.8286 34.0781 39.5469C34.0781 42.2652 36.2817 44.4688 39 44.4688Z" stroke="white" stroke-width="2" stroke-linecap="round" stroke-linejoin="round"/>
</g>
<defs>
<clipPath id="clip0_223_4152">
<rect width="35" height="35" fill="white" transform="translate(21.5 21.5)"/>
</clipPath>
</defs>
</svg>
