<svg width="17" height="17" viewBox="0 0 17 17" fill="none" xmlns="http://www.w3.org/2000/svg">
<path d="M14.7855 11.1465C14.6918 11.0528 14.5646 11.0001 14.432 11.0001C14.2995 11.0001 14.1723 11.0528 14.0785 11.1465L12 13.225V2.5C12 2.36739 11.9474 2.24021 11.8536 2.14645C11.7598 2.05268 11.6326 2 11.5 2C11.3674 2 11.2402 2.05268 11.1465 2.14645C11.0527 2.24021 11 2.36739 11 2.5V13.225L8.92153 11.1465C8.87541 11.0987 8.82024 11.0607 8.75924 11.0344C8.69823 11.0082 8.63262 10.9945 8.56623 10.9939C8.49984 10.9933 8.434 11.0059 8.37256 11.0311C8.31111 11.0562 8.25528 11.0934 8.20834 11.1403C8.16139 11.1872 8.12426 11.2431 8.09912 11.3045C8.07398 11.366 8.06133 11.4318 8.06191 11.4982C8.06249 11.5646 8.07628 11.6302 8.10248 11.6912C8.12869 11.7522 8.16678 11.8074 8.21453 11.8535L11.1465 14.7855C11.2403 14.8792 11.3675 14.9319 11.5 14.9319C11.6326 14.9319 11.7598 14.8792 11.8535 14.7855L14.7855 11.8535C14.8793 11.7597 14.9319 11.6326 14.9319 11.5C14.9319 11.3674 14.8793 11.2403 14.7855 11.1465Z" fill="#23262C"/>
<path d="M8.07857 5.85375C8.17288 5.94483 8.29918 5.99523 8.43028 5.99409C8.56137 5.99295 8.68678 5.94037 8.77948 5.84766C8.87219 5.75496 8.92477 5.62955 8.92591 5.49845C8.92705 5.36735 8.87665 5.24105 8.78557 5.14675L5.85357 2.21475C5.75981 2.12102 5.63266 2.06836 5.50007 2.06836C5.36749 2.06836 5.24034 2.12102 5.14657 2.21475L2.21457 5.14675C2.1235 5.24105 2.0731 5.36735 2.07424 5.49845C2.07538 5.62955 2.12796 5.75496 2.22067 5.84766C2.31337 5.94037 2.43878 5.99295 2.56987 5.99409C2.70097 5.99523 2.82727 5.94483 2.92157 5.85375L5.00007 3.77525V14.5003C5.00007 14.6329 5.05275 14.76 5.14652 14.8538C5.24029 14.9476 5.36747 15.0003 5.50007 15.0003C5.63268 15.0003 5.75986 14.9476 5.85363 14.8538C5.9474 14.76 6.00007 14.6329 6.00007 14.5003V3.77525L8.07857 5.85375Z" fill="#12B438"/>
</svg>
