<svg width="21" height="20" viewBox="0 0 21 20" fill="none" xmlns="http://www.w3.org/2000/svg">
<g clip-path="url(#clip0_104_15)">
<path d="M14.693 1.14014C13.8014 1.154 12.9293 1.40289 12.1647 1.86165C11.4001 2.32041 10.77 2.97281 10.3383 3.75296C9.90646 2.97281 9.27644 2.32041 8.51184 1.86165C7.74724 1.40289 6.87512 1.154 5.98355 1.14014C4.56229 1.20189 3.22323 1.82363 2.25892 2.86953C1.29461 3.91544 0.783443 5.30048 0.837085 6.72207C0.837085 12.0863 9.51165 18.2818 9.88061 18.5447L10.3383 18.8685L10.7959 18.5447C11.1649 18.2834 19.8394 12.0863 19.8394 6.72207C19.8931 5.30048 19.3819 3.91544 18.4176 2.86953C17.4533 1.82363 16.1142 1.20189 14.693 1.14014ZM10.3383 16.9192C7.76264 14.9952 2.42061 10.2684 2.42061 6.72207C2.36649 5.72027 2.71069 4.7377 3.37814 3.98867C4.0456 3.23963 4.98215 2.78491 5.98355 2.72366C6.98495 2.78491 7.9215 3.23963 8.58896 3.98867C9.25641 4.7377 9.60061 5.72027 9.54649 6.72207H11.13C11.0759 5.72027 11.4201 4.7377 12.0875 3.98867C12.755 3.23963 13.6916 2.78491 14.693 2.72366C15.6944 2.78491 16.6309 3.23963 17.2984 3.98867C17.9658 4.7377 18.31 5.72027 18.2559 6.72207C18.2559 10.27 12.9139 14.9952 10.3383 16.9192Z" fill="#23262C"/>
</g>
<defs>
<clipPath id="clip0_104_15">
<rect width="20" height="20" fill="white" transform="translate(0.333252)"/>
</clipPath>
</defs>
</svg>
